<mxfile host="65bd71144e" scale="1" border="20">
    <diagram id="uqR_Nro2DzXtnNYbZ28u" name="Страница 1">
        <mxGraphModel dx="529" dy="618" grid="0" gridSize="10" guides="1" tooltips="1" connect="1" arrows="1" fold="1" page="1" pageScale="1" pageWidth="827" pageHeight="1169" background="#ffffff" math="0" shadow="0">
            <root>
                <mxCell id="0"/>
                <mxCell id="1" parent="0"/>
                <mxCell id="2" value="" style="rounded=0;whiteSpace=wrap;html=1;fillColor=#f5f5f5;fontColor=#333333;strokeColor=#666666;" parent="1" vertex="1">
                    <mxGeometry x="70" y="67" width="240" height="460" as="geometry"/>
                </mxCell>
                <mxCell id="3" value="Сервис бронирования столиков" style="text;html=1;align=center;verticalAlign=middle;whiteSpace=wrap;rounded=0;fillColor=#f5f5f5;fontColor=#333333;strokeColor=none;" parent="1" vertex="1">
                    <mxGeometry x="95" y="80" width="190" height="30" as="geometry"/>
                </mxCell>
                <mxCell id="4" value="Стол 1" style="rounded=0;whiteSpace=wrap;html=1;fillColor=#76608a;strokeColor=#432D57;fontColor=#ffffff;" parent="1" vertex="1">
                    <mxGeometry x="95" y="250" width="50" height="40" as="geometry"/>
                </mxCell>
                <mxCell id="5" value="Стол 2" style="rounded=0;whiteSpace=wrap;html=1;fillColor=#6d8764;strokeColor=#3A5431;fontColor=#ffffff;" parent="1" vertex="1">
                    <mxGeometry x="165" y="250" width="50" height="40" as="geometry"/>
                </mxCell>
                <mxCell id="6" value="Стол 3" style="rounded=0;whiteSpace=wrap;html=1;fillColor=#6d8764;strokeColor=#3A5431;fontColor=#ffffff;" parent="1" vertex="1">
                    <mxGeometry x="235" y="250" width="50" height="40" as="geometry"/>
                </mxCell>
                <mxCell id="7" value="Стол 4" style="rounded=0;whiteSpace=wrap;html=1;fillColor=#6d8764;strokeColor=#3A5431;fontColor=#ffffff;" parent="1" vertex="1">
                    <mxGeometry x="95" y="310" width="50" height="40" as="geometry"/>
                </mxCell>
                <mxCell id="8" value="Стол 5" style="rounded=0;whiteSpace=wrap;html=1;fillColor=#6d8764;strokeColor=#3A5431;fontColor=#ffffff;" parent="1" vertex="1">
                    <mxGeometry x="165" y="310" width="50" height="40" as="geometry"/>
                </mxCell>
                <mxCell id="9" value="Стол 6" style="rounded=0;whiteSpace=wrap;html=1;fillColor=#76608a;strokeColor=#432D57;fontColor=#ffffff;" parent="1" vertex="1">
                    <mxGeometry x="235" y="310" width="50" height="40" as="geometry"/>
                </mxCell>
                <mxCell id="10" value="Стол 7" style="rounded=0;whiteSpace=wrap;html=1;fillColor=#6d8764;strokeColor=#3A5431;fontColor=#ffffff;" parent="1" vertex="1">
                    <mxGeometry x="95" y="370" width="50" height="40" as="geometry"/>
                </mxCell>
               <mxCell id="11" value="Стол 8" style="rounded=0;whiteSpace=wrap;html=1;fillColor=#76608a;strokeColor=#432D57;fontColor=#ffffff;" parent="1" vertex="1">
                    <mxGeometry x="165" y="370" width="50" height="40" as="geometry"/>
                </mxCell>
                <mxCell id="12" value="Стол 9" style="rounded=0;whiteSpace=wrap;html=1;fillColor=#6d8764;strokeColor=#3A5431;fontColor=#ffffff;" parent="1" vertex="1">
                    <mxGeometry x="235" y="370" width="50" height="40" as="geometry"/>
                </mxCell>
                <mxCell id="13" value="Стол 10" style="rounded=0;whiteSpace=wrap;html=1;fillColor=#6d8764;strokeColor=#3A5431;fontColor=#ffffff;" parent="1" vertex="1">
                    <mxGeometry x="95" y="430" width="50" height="40" as="geometry"/>
                </mxCell>
                <mxCell id="14" value="Стол 11" style="rounded=0;whiteSpace=wrap;html=1;fillColor=#6d8764;strokeColor=#3A5431;fontColor=#ffffff;" parent="1" vertex="1">
                    <mxGeometry x="165" y="430" width="50" height="40" as="geometry"/>
                </mxCell>
                <mxCell id="15" value="Стол 12" style="rounded=0;whiteSpace=wrap;html=1;fillColor=#6d8764;strokeColor=#3A5431;fontColor=#ffffff;" parent="1" vertex="1">
                    <mxGeometry x="235" y="430" width="50" height="40" as="geometry"/>
                </mxCell>
                <mxCell id="17" value="Имя" style="rounded=0;whiteSpace=wrap;html=1;" parent="1" vertex="1">
                    <mxGeometry x="95" y="120" width="70" height="20" as="geometry"/>
                </mxCell>
                <mxCell id="18" value="Телефон" style="rounded=0;whiteSpace=wrap;html=1;" parent="1" vertex="1">
                    <mxGeometry x="195" y="120" width="95" height="20" as="geometry"/>
                </mxCell>
                <mxCell id="19" value="Время" style="rounded=0;whiteSpace=wrap;html=1;" parent="1" vertex="1">
                    <mxGeometry x="95" y="160" width="70" height="20" as="geometry"/>
                </mxCell>
                <mxCell id="20" value="Колво персон" style="rounded=0;whiteSpace=wrap;html=1;" parent="1" vertex="1">
                    <mxGeometry x="190" y="160" width="100" height="20" as="geometry"/>
                </mxCell>
                <mxCell id="21" value="&amp;nbsp;Состав заказа" style="rounded=0;whiteSpace=wrap;html=1;fontColor=#E6E6E6;align=left;horizontal=1;verticalAlign=top;" parent="1" vertex="1">
                    <mxGeometry x="95" y="190" width="195" height="50" as="geometry"/>
                </mxCell>
                <mxCell id="27" value="Забронировать" style="rounded=1;whiteSpace=wrap;html=1;fillColor=#647687;strokeColor=#314354;fontColor=#ffffff;" parent="1" vertex="1">
                    <mxGeometry x="185" y="486" width="100" height="30" as="geometry"/>
                </mxCell>
            </root>
        </mxGraphModel>
    </diagram>
</mxfile>